<?xml version="1.0" encoding="utf-8"?>
<!-- Generator: Adobe Illustrator 14.0.0, SVG Export Plug-In . SVG Version: 6.00 Build 43363)  -->
<!DOCTYPE svg PUBLIC "-//W3C//DTD SVG 1.1//EN" "http://www.w3.org/Graphics/SVG/1.1/DTD/svg11.dtd">
<svg version="1.1" id="Layer_1" xmlns="http://www.w3.org/2000/svg" xmlns:xlink="http://www.w3.org/1999/xlink" x="0px" y="0px"
	 width="250px" height="47px" viewBox="0 0 250 47" enable-background="new 0 0 250 47" xml:space="preserve">
<g>
	<path fill-rule="evenodd" clip-rule="evenodd" fill="#007153" d="M240.496,30.872v-1.443h1.164c0.498,0,1.018,0.073,1.018,0.711
		c0,0.831-0.842,0.732-1.42,0.732H240.496 M241.938,31.271c0.726-0.019,1.282-0.319,1.282-1.125c0-0.67-0.367-1.076-1.443-1.076
		h-1.787v4.079h0.506v-1.878h0.915l1.165,1.878h0.6L241.938,31.271z M241.353,34.292c-1.787,0-3.091-1.392-3.091-3.186
		c0-1.776,1.304-3.164,3.091-3.164c1.772,0,3.069,1.388,3.069,3.164C244.422,32.9,243.125,34.292,241.353,34.292z M241.353,34.771
		c2.015,0,3.647-1.637,3.647-3.665c0-2.007-1.633-3.647-3.647-3.647c-2.028,0-3.669,1.641-3.669,3.647
		C237.684,33.135,239.324,34.771,241.353,34.771z"/>
	<polyline fill-rule="evenodd" clip-rule="evenodd" fill="#007153" points="13.888,5.819 5,5.819 5,34.783 14.089,34.783 
		14.089,25.613 13.727,19.014 24.065,34.783 32.955,34.783 32.955,5.819 23.863,5.819 23.863,15.033 24.226,21.629 13.888,5.819 	
		"/>
	<path fill-rule="evenodd" clip-rule="evenodd" fill="#007153" d="M44.648,30.638c-1.648,0-2.655-0.722-2.655-1.769
		c0-2.736,3.62-2.092,6.354-3.421C48.55,28.345,47.585,30.638,44.648,30.638 M57.841,34.783V34.38
		c-1.086-0.886-1.126-1.486-1.126-2.695V21.83c0-5.028-0.604-8.73-10.578-8.73c-8.328,0-11.505,2.618-11.505,7.083h8.044
		c0.203-1.813,1.771-2.051,2.937-2.051c0.886,0,2.734,0.198,2.734,1.729c0,3.94-15.002-0.403-15.002,9.167
		c0,4.387,3.54,6.357,7.522,6.357c3.137,0,5.55-0.642,7.925-2.856l0.401,2.256H57.841z"/>
	<path fill-rule="evenodd" clip-rule="evenodd" fill="#007153" d="M71.634,28.788h-1.327c-2.331,0-2.613-0.685-2.613-2.611V18.53
		h4.023v-4.826h-4.023V7.148h-8.247v6.556H56.35v4.826h2.976v8.808c0,7.284,1.328,8.046,12.308,7.445V28.788"/>
	<path fill-rule="evenodd" clip-rule="evenodd" fill="#007153" d="M72.753,11.009h8.368V5.058h-8.368V11.009 M81.121,34.783V13.704
		h-8.368v21.079H81.121z"/>
	<path fill-rule="evenodd" clip-rule="evenodd" fill="#007153" d="M81.672,24.485c0,7.199,5.229,10.898,11.988,10.898
		c6.756,0,11.986-3.618,11.986-11.342c0-6.555-4.585-10.942-12.028-10.942C86.499,13.1,81.672,17.165,81.672,24.485 M93.738,18.732
		c2.174-0.121,3.542,2.215,3.542,5.31c0,3.98-1.368,5.709-3.62,5.709c-2.133,0-3.62-1.729-3.62-5.709
		C90.04,21.669,90.884,18.732,93.738,18.732z"/>
	<polyline fill-rule="evenodd" clip-rule="evenodd" fill="#007153" points="161.467,34.783 161.467,5.819 153.104,5.819 
		153.104,34.783 161.467,34.783 	"/>
	<path fill-rule="evenodd" clip-rule="evenodd" fill="#007153" d="M194.924,16.883c-0.762-7.441-5.713-11.825-14.561-11.825
		c-8.086,0-14.436,5.83-14.436,15.205c0,9.408,5.786,15.282,15.366,15.282c7.64,0,12.993-4.505,13.835-11.986h-9.133
		c-0.359,2.775-1.809,4.907-4.863,4.907c-4.834,0-5.713-3.819-5.713-7.881c0-5.592,2.007-8.448,5.347-8.448
		c2.981,0,4.87,1.729,5.149,4.746H194.924"/>
	<path fill-rule="evenodd" clip-rule="evenodd" fill="#007153" d="M195.84,11.009h8.371V5.058h-8.371V11.009 M204.211,34.783V13.704
		h-8.371v21.079H204.211z"/>
	<path fill-rule="evenodd" clip-rule="evenodd" fill="#007153" d="M219.204,28.788h-1.333c-2.329,0-2.615-0.685-2.615-2.611V18.53
		h4.021v-4.826h-4.021V7.148h-8.239v6.556h-3.105v4.826h2.981v8.808c0,7.284,1.325,8.046,12.312,7.445V28.788"/>
	<path fill-rule="evenodd" clip-rule="evenodd" fill="#007153" d="M225.269,13.704h-8.408l6.914,19.189
		c0.85,2.329,0.241,3.098-2.373,3.098c-0.557,0-1.12-0.044-1.729-0.044v5.83c0.645,0,2.175,0.165,3.698,0.165
		c7.441,0,8.328-2.055,10.54-8.569l6.761-19.669h-8.043l-3.662,12.993L225.269,13.704"/>
	<path fill-rule="evenodd" clip-rule="evenodd" fill="#007153" d="M106.045,34.783h8.366V24.042c0-2.695,0.685-4.343,3.259-4.343
		c2.371,0,2.937,1.849,2.937,3.94v11.144h8.362V22.152c0-5.793-2.611-9.053-8.163-9.053c-3.179,0-5.229,1.37-7.119,3.904v-3.299
		h-7.643V34.783"/>
	<path fill-rule="evenodd" clip-rule="evenodd" fill="#007153" d="M139.868,30.638c-1.647,0-2.651-0.722-2.651-1.769
		c0-2.736,3.618-2.092,6.35-3.421C143.771,28.345,142.805,30.638,139.868,30.638 M153.066,34.783V34.38
		c-1.092-0.886-1.128-1.486-1.128-2.695V21.83c0-5.028-0.601-8.73-10.576-8.73c-8.327,0-11.507,2.618-11.507,7.083h8.043
		c0.205-1.813,1.771-2.051,2.937-2.051c0.886,0,2.731,0.198,2.731,1.729c0,3.94-14.998-0.403-14.998,9.167
		c0,4.387,3.536,6.357,7.521,6.357c3.135,0,5.552-0.642,7.925-2.856l0.402,2.256H153.066z"/>
</g>
</svg>
