<svg width="62" height="66" viewBox="0 0 62 66" xmlns="http://www.w3.org/2000/svg"><g fill="none" fill-rule="evenodd"><path d="M25.92 6.371a5.205 5.205 0 1 1-10.412 0 5.205 5.205 0 0 1 10.411 0" fill="#FBCE20"/><path d="M36.478 6.371a5.206 5.206 0 1 1-10.409 0 5.206 5.206 0 0 1 10.409 0" fill="#1A1919"/><path d="M47.037 6.371a5.205 5.205 0 1 1-10.41 0 5.205 5.205 0 0 1 10.41 0" fill="#E67830"/><path d="M25.92 16.93a5.204 5.204 0 0 1-10.41 0 5.204 5.204 0 1 1 10.41 0" fill="#6F78AB"/><path d="M36.478 16.93a5.203 5.203 0 0 1-5.204 5.205 5.205 5.205 0 1 1 0-10.41 5.204 5.204 0 0 1 5.204 5.206" fill="#A9A277"/><path d="M47.037 16.93a5.205 5.205 0 1 1-10.41-.002 5.205 5.205 0 0 1 10.41.003" fill="#D1DB46"/><path d="M25.92 27.488a5.204 5.204 0 0 1-5.206 5.204 5.203 5.203 0 0 1-5.204-5.204 5.204 5.204 0 1 1 10.41 0" fill="#56ACC0"/><path d="M36.478 27.488a5.202 5.202 0 0 1-5.204 5.204 5.204 5.204 0 1 1 0-10.409 5.203 5.203 0 0 1 5.204 5.205" fill="#1A1919"/><path d="M47.037 27.488a5.203 5.203 0 0 1-5.204 5.204 5.204 5.204 0 1 1 0-10.409 5.204 5.204 0 0 1 5.204 5.205" fill="#6BB964"/><path d="M12.979 61.463h-1.605v-2.806h1.647c.53 0 1.764.134 1.764 1.382v.02c0 .853-.709 1.404-1.806 1.404zm.106-4.04h-3.008v7.883h1.297v-2.62h1.573c1.882 0 3.146-1.068 3.146-2.658v-.021c0-1.57-1.18-2.584-3.008-2.584zm7.388 6.649v-6.65h-1.298v7.884h5.476v-1.234h-4.178m12.395-1.941h-2.674l1.342-2.992 1.332 2.992zm-.78-4.761h-1.082l-3.591 7.936h1.364l.88-1.962h3.742l.87 1.962h1.408l-3.592-7.936zm12.016 5.668l-.161.154c-.633.604-1.256 1.007-2.238 1.007-1.482 0-2.644-1.245-2.644-2.835v-.021c0-1.604 1.137-2.813 2.644-2.813.82 0 1.47.285 2.175.954l.169.16.886-.952-.166-.157c-.683-.644-1.525-1.24-3.053-1.24-2.234 0-3.984 1.787-3.984 4.07v.02c0 2.307 1.7 4.048 3.952 4.048 1.568 0 2.464-.694 3.133-1.373l.162-.164-.875-.858m5.254 1.044v-2.138h4.051v-1.223h-4.05v-2.075h4.527v-1.223h-5.825v7.883h5.878v-1.224h-4.58M8.602 42.624v4.926h-6.65v-4.926H1v10.804h.951V48.44h6.651v4.987h.952V42.624h-.952m14.635 0L19.28 48.28l-3.941-5.657h-1.186l4.636 6.537v4.267h.952v-4.281l4.637-6.523h-1.141M29 49.573l2.687-5.884 2.673 5.884H29zm3.134-7.025h-.864l-5.03 10.88h.998l1.353-2.98h6.176l1.353 2.98h1.045l-5.031-10.88zm7.835.076v.89h3.71v9.914h.951v-9.913h3.71v-.891h-8.37m12.74 0v.89h3.71v9.914h.952v-9.913h3.71v-.891H52.71m4.727 16.77c.59 0 1.058-.465 1.058-1.054a1.05 1.05 0 0 0-1.058-1.054c-.59 0-1.057.467-1.057 1.054 0 .589.467 1.054 1.057 1.054zm0-1.936c.483 0 .883.381.883.882 0 .499-.4.882-.883.882a.88.88 0 0 1-.885-.882c0-.5.401-.882.885-.882z" fill="#1A1919"/><path d="M57.517 58.297c.14 0 .226-.067.226-.172v-.008c0-.106-.086-.17-.226-.17h-.286v.35h.286zm-.506-.542h.514c.15 0 .27.045.35.123a.299.299 0 0 1 .091.228v.008c0 .175-.108.29-.266.332l.311.415h-.263l-.278-.38h-.239v.38h-.22v-1.106z" fill="#1A1919"/></g></svg>